HIERARCHY
ROOT Hips
{
  OFFSET 91.2244 90.026 26.1335
  CHANNELS 6 Xposition Yposition Zposition Zrotation Xrotation Yrotation
  JOINT RightUpLeg
  {
    OFFSET -9.26543 -1.55198 -0.00276407
    CHANNELS 3 Zrotation Xrotation Yrotation
    JOINT RightLeg
    {
      OFFSET 0.00706465 -41.889 0.0798854
      CHANNELS 3 Zrotation Xrotation Yrotation
      JOINT RightFoot
      {
        OFFSET -1.51766 -41.6901 -0.263239
        CHANNELS 3 Zrotation Xrotation Yrotation
        End Site
        {
          OFFSET 0 -7.69 17.5
        }
      }
    }
  }
  JOINT LeftUpLeg
  {
    OFFSET 9.33035 -1.6331 0.002402
    CHANNELS 3 Zrotation Xrotation Yrotation
    JOINT LeftLeg
    {
      OFFSET 0.0774 -41.8788 0.006528
      CHANNELS 3 Zrotation Xrotation Yrotation
      JOINT LeftFoot
      {
        OFFSET 0.406189 -42.2791 -0.67832
        CHANNELS 3 Zrotation Xrotation Yrotation
        End Site
        {
          OFFSET 0 -7.69 17.5
        }
      }
    }
  }
  JOINT Spine
  {
    OFFSET 0.0210118 14.3125 0.030377
    CHANNELS 3 Zrotation Xrotation Yrotation
    JOINT Spine1
    {
      OFFSET -2.02627e-05 9.71981 0.0121962
      CHANNELS 3 Zrotation Xrotation Yrotation
      JOINT Spine2
      {
        OFFSET 0.023812 10.122 0.0180119
        CHANNELS 3 Zrotation Xrotation Yrotation
        JOINT Spine3
        {
          OFFSET 0.00443321 9.71861 0.0143853
          CHANNELS 3 Zrotation Xrotation Yrotation
          JOINT Neck
          {
            OFFSET -0.025003 10.3767 0.0233355
            CHANNELS 3 Zrotation Xrotation Yrotation
            JOINT Head
            {
              OFFSET -0.00975384 9.4764 0.045578
              CHANNELS 3 Zrotation Xrotation Yrotation
              End Site
              {
                OFFSET 0 15.95 0
              }
            }
          }
          JOINT RightShoulder
          {
            OFFSET -3.18407 6.9358 0.0313291
            CHANNELS 3 Zrotation Xrotation Yrotation
            JOINT RightArm
            {
              OFFSET -12.7601 0.0147069 0.0234973
              CHANNELS 3 Zrotation Xrotation Yrotation
              JOINT RightForeArm
              {
                OFFSET -26.4708 -0.032683 0.042111
                CHANNELS 3 Zrotation Xrotation Yrotation
                JOINT RightHand
                {
                  OFFSET -26.0234 -0.0283521 0.00388791
                  CHANNELS 3 Zrotation Xrotation Yrotation
                  JOINT RightHandThumb1
                  {
                    OFFSET -2.48905 0.190105 3.12053
                    CHANNELS 3 Zrotation Xrotation Yrotation
                    JOINT RightHandThumb2
                    {
                      OFFSET -3.68274 0 0
                      CHANNELS 3 Zrotation Xrotation Yrotation
                      JOINT RightHandThumb3
                      {
                        OFFSET -2.55832 0 0
                        CHANNELS 3 Zrotation Xrotation Yrotation
                        End Site
                        {
                          OFFSET -2.194 0 0
                        }
                      }
                    }
                  }
                  JOINT RightInHandIndex
                  {
                    OFFSET -3.22368 0.508421 1.97842
                    CHANNELS 3 Zrotation Xrotation Yrotation
                    JOINT RightHandIndex1
                    {
                      OFFSET -5.21684 -0.091368 0.999158
                      CHANNELS 3 Zrotation Xrotation Yrotation
                      JOINT RightHandIndex2
                      {
                        OFFSET -3.61937 0 0
                        CHANNELS 3 Zrotation Xrotation Yrotation
                        JOINT RightHandIndex3
                        {
                          OFFSET -2.0521 0 0
                          CHANNELS 3 Zrotation Xrotation Yrotation
                          End Site
                          {
                            OFFSET -1.805 0 0
                          }
                        }
                      }
                    }
                  }
                  JOINT RightInHandMiddle
                  {
                    OFFSET -3.38211 0.517263 0.756737
                    CHANNELS 3 Zrotation Xrotation Yrotation
                    JOINT RightHandMiddle1
                    {
                      OFFSET -5.17411 -0.084 0.313895
                      CHANNELS 3 Zrotation Xrotation Yrotation
                      JOINT RightHandMiddle2
                      {
                        OFFSET -3.94947 0 0
                        CHANNELS 3 Zrotation Xrotation Yrotation
                        JOINT RightHandMiddle3
                        {
                          OFFSET -2.47579 0 0
                          CHANNELS 3 Zrotation Xrotation Yrotation
                          End Site
                          {
                            OFFSET -1.975 0 0
                          }
                        }
                      }
                    }
                  }
                  JOINT RightInHandRing
                  {
                    OFFSET -3.36516 0.537895 -0.128947
                    CHANNELS 3 Zrotation Xrotation Yrotation
                    JOINT RightHandRing1
                    {
                      OFFSET -4.63474 -0.022105 -0.478947
                      CHANNELS 3 Zrotation Xrotation Yrotation
                      JOINT RightHandRing2
                      {
                        OFFSET -3.44238 0 0
                        CHANNELS 3 Zrotation Xrotation Yrotation
                        JOINT RightHandRing3
                        {
                          OFFSET -2.3881 0 0
                          CHANNELS 3 Zrotation Xrotation Yrotation
                          End Site
                          {
                            OFFSET -1.857 0 0
                          }
                        }
                      }
                    }
                  }
                  JOINT RightInHandPinky
                  {
                    OFFSET -3.16105 0.469368 -1.20179
                    CHANNELS 3 Zrotation Xrotation Yrotation
                    JOINT RightHandPinky1
                    {
                      OFFSET -4.14105 -0.022105 -1.09053
                      CHANNELS 3 Zrotation Xrotation Yrotation
                      JOINT RightHandPinky2
                      {
                        OFFSET -2.75653 0 0
                        CHANNELS 3 Zrotation Xrotation Yrotation
                        JOINT RightHandPinky3
                        {
                          OFFSET -1.74189 0 0
                          CHANNELS 3 Zrotation Xrotation Yrotation
                          End Site
                          {
                            OFFSET -1.645 0 0
                          }
                        }
                      }
                    }
                  }
                }
              }
            }
          }
          JOINT LeftShoulder
          {
            OFFSET 3.21192 6.92101 0.01407
            CHANNELS 3 Zrotation Xrotation Yrotation
            JOINT LeftArm
            {
              OFFSET 12.7303 -0.00466279 0.011464
              CHANNELS 3 Zrotation Xrotation Yrotation
              JOINT LeftForeArm
              {
                OFFSET 26.497 -0.127446 0.0273404
                CHANNELS 3 Zrotation Xrotation Yrotation
                JOINT LeftHand
                {
                  OFFSET 26.0093 -0.0453415 -0.0774742
                  CHANNELS 3 Zrotation Xrotation Yrotation
                  JOINT LeftHandThumb1
                  {
                    OFFSET 2.48905 0.190105 3.12053
                    CHANNELS 3 Zrotation Xrotation Yrotation
                    JOINT LeftHandThumb2
                    {
                      OFFSET 3.68274 0 0
                      CHANNELS 3 Zrotation Xrotation Yrotation
                      JOINT LeftHandThumb3
                      {
                        OFFSET 2.55832 0 0
                        CHANNELS 3 Zrotation Xrotation Yrotation
                        End Site
                        {
                          OFFSET 2.194 0 0
                        }
                      }
                    }
                  }
                  JOINT LeftInHandIndex
                  {
                    OFFSET 3.22368 0.508421 1.97842
                    CHANNELS 3 Zrotation Xrotation Yrotation
                    JOINT LeftHandIndex1
                    {
                      OFFSET 5.21684 -0.091368 0.999158
                      CHANNELS 3 Zrotation Xrotation Yrotation
                      JOINT LeftHandIndex2
                      {
                        OFFSET 3.61937 0 0
                        CHANNELS 3 Zrotation Xrotation Yrotation
                        JOINT LeftHandIndex3
                        {
                          OFFSET 2.0521 0 0
                          CHANNELS 3 Zrotation Xrotation Yrotation
                          End Site
                          {
                            OFFSET 1.805 0 0
                          }
                        }
                      }
                    }
                  }
                  JOINT LeftInHandMiddle
                  {
                    OFFSET 3.38211 0.517263 0.756737
                    CHANNELS 3 Zrotation Xrotation Yrotation
                    JOINT LeftHandMiddle1
                    {
                      OFFSET 5.17411 -0.084 0.313895
                      CHANNELS 3 Zrotation Xrotation Yrotation
                      JOINT LeftHandMiddle2
                      {
                        OFFSET 3.94947 0 0
                        CHANNELS 3 Zrotation Xrotation Yrotation
                        JOINT LeftHandMiddle3
                        {
                          OFFSET 2.47579 0 0
                          CHANNELS 3 Zrotation Xrotation Yrotation
                          End Site
                          {
                            OFFSET 1.975 0 0
                          }
                        }
                      }
                    }
                  }
                  JOINT LeftInHandRing
                  {
                    OFFSET 3.36516 0.537895 -0.128947
                    CHANNELS 3 Zrotation Xrotation Yrotation
                    JOINT LeftHandRing1
                    {
                      OFFSET 4.63474 -0.022105 -0.478947
                      CHANNELS 3 Zrotation Xrotation Yrotation
                      JOINT LeftHandRing2
                      {
                        OFFSET 3.44238 0 0
                        CHANNELS 3 Zrotation Xrotation Yrotation
                        JOINT LeftHandRing3
                        {
                          OFFSET 2.3881 0 0
                          CHANNELS 3 Zrotation Xrotation Yrotation
                          End Site
                          {
                            OFFSET 1.857 0 0
                          }
                        }
                      }
                    }
                  }
                  JOINT LeftInHandPinky
                  {
                    OFFSET 3.16105 0.469368 -1.20179
                    CHANNELS 3 Zrotation Xrotation Yrotation
                    JOINT LeftHandPinky1
                    {
                      OFFSET 4.14105 -0.022105 -1.09053
                      CHANNELS 3 Zrotation Xrotation Yrotation
                      JOINT LeftHandPinky2
                      {
                        OFFSET 2.75653 0 0
                        CHANNELS 3 Zrotation Xrotation Yrotation
                        JOINT LeftHandPinky3
                        {
                          OFFSET 1.74189 0 0
                          CHANNELS 3 Zrotation Xrotation Yrotation
                          End Site
                          {
                            OFFSET 1.645 0 0
                          }
                        }
                      }
                    }
                  }
                }
              }
            }
          }
        }
      }
    }
  }
}
MOTION
Frames: 3
Frame Time: 0.00833333
1.500000030403273570e+02 8.470877611711353204e-05 5.891708166763992213e-04 -1.600516421048919433e-03 6.015661092887143561e-04 -1.067206949922896130e-02 5.180781697369410237e-03 -5.631428511249245367e-04 6.311653249648641051e-02 1.516622205623775234e-02 3.337779588713642859e-03 -5.378577862540920296e-02 5.172754400830784690e-04 1.114653077270530424e-03 8.352706588977813242e-05 1.055822869405178156e-03 1.256594444667580822e-02 -1.917172670904416631e-03 -7.932253112914443641e-03 -1.372129804939001881e-03 9.746147128643242036e-03 -4.069042991910803639e-04 -9.440959517244237095e-04 -8.224022314068807089e-04 -7.246810597366120559e-04 -1.718121416910422606e-03 -1.023850526034432787e-02 -4.964876762275582077e-04 -1.102201827087247133e-03 -2.632768347476319160e-03 -4.292068024980983656e-04 -8.554631841277132850e-04 -4.124613747563683763e-03 -2.077579589469906722e-04 -4.472038630157946858e-05 7.013772023403225470e-04 -1.696034299578148710e-04 1.574993434656666517e-04 2.085093325784591334e-02 -3.764220953420140559e-03 1.590243160456390878e-03 4.804768662923507815e-03 -8.616578228259162285e-05 -1.821112582500784859e-06 2.733887119797012016e-02 4.344054600535199231e-04 5.690465227423523609e-04 -2.160524465970326165e-03 7.457928341088217172e-02 8.818052978354790072e-02 -1.389608671439861720e-01 -8.543322928617368139e-02 8.988600397997060024e-03 1.817591695486499570e-01 0.000000000000000000e+00 0.000000000000000000e+00 0.000000000000000000e+00 -3.203124851171782061e-15 2.583228165435183703e-15 0.000000000000000000e+00 -7.666368490398460789e-16 3.132891824426210167e-15 0.000000000000000000e+00 -5.390870600933194706e-16 -2.097252249867038578e-15 3.535078542563575298e-16 0.000000000000000000e+00 0.000000000000000000e+00 0.000000000000000000e+00 0.000000000000000000e+00 -3.335777059348792245e-15 3.373531004415289326e-16 0.000000000000000000e+00 -1.633171909236928656e-15 -3.902429576544585577e-15 -5.390870600933194706e-16 -2.097252249867038578e-15 3.535078542563575298e-16 0.000000000000000000e+00 -3.167076794841095376e-15 2.250313629841006084e-15 0.000000000000000000e+00 1.915950320716080839e-15 -3.143359223306114481e-15 0.000000000000000000e+00 -1.355549507011901779e-15 -2.457915245984653006e-15 -5.390870600933194706e-16 -2.097252249867038578e-15 3.535078542563575298e-16 0.000000000000000000e+00 0.000000000000000000e+00 0.000000000000000000e+00 0.000000000000000000e+00 -1.009197142463330005e-16 -2.901921721477725915e-15 0.000000000000000000e+00 1.089653552084117873e-15 -2.008021082517248878e-15 -5.390870600933194706e-16 -2.097252249867038578e-15 3.535078542563575298e-16 0.000000000000000000e+00 0.000000000000000000e+00 0.000000000000000000e+00 0.000000000000000000e+00 3.385942170899716329e-15 4.956795336761984980e-16 0.000000000000000000e+00 -5.821346204604378576e-17 2.228586427465790695e-15 3.688871835052703017e-03 3.256292507116579672e-03 2.970452829540564527e-02 1.450474801911687261e-02 -2.849289300606123402e-03 -1.690493865904057341e-02 7.228468423678250949e-04 1.276412390870416535e-03 -6.224128042992562414e-03 2.324953554947916112e-01 4.473191774639287237e-03 2.083829905654570325e-01 0.000000000000000000e+00 0.000000000000000000e+00 0.000000000000000000e+00 -7.696764488240704534e-17 -4.726060018788802017e-15 0.000000000000000000e+00 1.232540897813794810e-15 -3.413563309881982850e-15 0.000000000000000000e+00 -4.211667541128528348e-15 -8.188827640768798018e-16 -3.617734347964547885e-16 0.000000000000000000e+00 0.000000000000000000e+00 0.000000000000000000e+00 0.000000000000000000e+00 3.747300156892644296e-16 -1.928434688903161490e-15 0.000000000000000000e+00 3.892532370648604033e-16 -1.534595945715031678e-15 -4.211667541128528348e-15 -8.188827640768798018e-16 -3.617734347964547885e-16 0.000000000000000000e+00 1.022379148530152369e-15 -6.714801424359770657e-15 0.000000000000000000e+00 6.649118975250693532e-16 2.079612162205710991e-15 0.000000000000000000e+00 -1.636276005058047112e-15 3.429165675629219968e-15 -4.211667541128528348e-15 -8.188827640768798018e-16 -3.617734347964547885e-16 0.000000000000000000e+00 0.000000000000000000e+00 0.000000000000000000e+00 0.000000000000000000e+00 2.347050115719150180e-15 -5.548936740574255626e-16 0.000000000000000000e+00 2.560157919307452357e-16 9.767524062173292332e-16 -4.211667541128528348e-15 -8.188827640768798018e-16 -3.617734347964547885e-16 0.000000000000000000e+00 0.000000000000000000e+00 0.000000000000000000e+00 0.000000000000000000e+00 -5.391353958409498456e-16 2.438302020851415732e-16 0.000000000000000000e+00 -1.156073477694211672e-15 -2.286086529723278906e-15
1.500001099156819748e+02 2.616470810166737136e-05 9.875117068913251504e-04 -3.915242621211736940e-02 -1.180074316158333074e-02 -1.151703382413120924e-01 6.314287058757896143e-02 2.894378794849723421e-02 1.333440537886907140e-01 1.603355887977593033e-03 5.675129050969127467e-03 4.172527916077702938e-03 -1.201046971319411072e-03 -8.966036676722754801e-04 1.072089381446403138e-03 -5.949597823869171714e-03 6.485560278923679922e-02 8.123044408956232865e-02 3.659280434260035048e-03 -2.052020940286937607e-03 -1.853832893476960956e-03 7.873214986070038829e-06 1.338671865776782776e-03 2.225662557887889310e-03 -2.775059304142484320e-02 1.438983788911492572e-03 1.034011058782119408e-01 -6.376212684868181289e-03 -9.714708364074579362e-04 2.620016631736465582e-02 -1.070638720148488036e-02 -2.015640009170581795e-03 4.090332144382193003e-02 9.100654171598196495e-04 -1.200174661638774576e-05 -4.448873270225119081e-03 6.159176125292706912e-04 -2.249550808720443757e-04 -5.469364915074508698e-02 7.608057782541081948e-03 -9.517847521402385963e-03 -1.413345329146964771e-02 -1.965980338621144997e-03 -3.158625279324864428e-03 -7.068256788464508111e-02 -1.521493536797552002e-03 -4.947766017318847888e-03 8.853113163868357380e-03 -1.855165752496151788e-02 -2.517994212129315637e-02 3.310524543498673949e-02 2.347199469598813468e-02 -4.408457130948332213e-03 -4.372204516342910463e-02 0.000000000000000000e+00 0.000000000000000000e+00 0.000000000000000000e+00 2.059021031817623375e-15 -4.322807698647265411e-15 0.000000000000000000e+00 -2.435508832724030010e-15 -2.902490738922848517e-15 0.000000000000000000e+00 8.341300572701770080e-16 -1.819990148507005193e-15 -1.950468831699102786e-15 0.000000000000000000e+00 0.000000000000000000e+00 0.000000000000000000e+00 0.000000000000000000e+00 -1.660508049233000396e-15 7.396003623615880054e-15 0.000000000000000000e+00 -4.902366689015174043e-15 4.004478078231570564e-15 8.341300572701770080e-16 -1.819990148507005193e-15 -1.950468831699102786e-15 0.000000000000000000e+00 7.061888213315365038e-15 -4.135797280483310986e-15 0.000000000000000000e+00 -8.361852962945639203e-15 1.757234679782977881e-14 0.000000000000000000e+00 -6.078653745988241155e-15 2.888634870084829442e-15 8.341300572701770080e-16 -1.819990148507005193e-15 -1.950468831699102786e-15 0.000000000000000000e+00 0.000000000000000000e+00 0.000000000000000000e+00 0.000000000000000000e+00 -6.405433983805953025e-16 1.026525343761700373e-14 0.000000000000000000e+00 4.817975480249271637e-15 7.597858808796887117e-15 8.341300572701770080e-16 -1.819990148507005193e-15 -1.950468831699102786e-15 0.000000000000000000e+00 0.000000000000000000e+00 0.000000000000000000e+00 0.000000000000000000e+00 -6.382209285859767821e-15 6.293190546930150065e-15 0.000000000000000000e+00 7.319020753053950571e-15 6.149871733131499685e-15 -1.506863518783983433e-02 -1.569577642848966892e-02 -7.116215415945975620e-02 -1.481725639103932462e-03 6.291844535303909485e-04 2.969407078318638329e-03 -1.043703130563696999e-03 5.125522432333493202e-03 -1.951933806812912106e-02 -8.277761317994247747e-02 4.914035196427478207e-03 -4.884003822667069838e-02 0.000000000000000000e+00 0.000000000000000000e+00 0.000000000000000000e+00 -5.630244491868681062e-15 5.723074336564382306e-15 0.000000000000000000e+00 6.364074129930856476e-15 -2.197136553642427053e-15 0.000000000000000000e+00 2.150325416334494708e-15 -1.325789470571071092e-15 -2.545429266904762797e-15 0.000000000000000000e+00 0.000000000000000000e+00 0.000000000000000000e+00 0.000000000000000000e+00 1.716742075752355368e-15 3.288280623132416126e-15 0.000000000000000000e+00 2.046196963687453934e-15 4.312660948307378210e-15 2.150325416334494708e-15 -1.325789470571071092e-15 -2.545429266904762797e-15 0.000000000000000000e+00 -1.217868005955650724e-15 4.647507299298584476e-15 0.000000000000000000e+00 -2.718427848436246817e-15 -4.096377207704424454e-15 0.000000000000000000e+00 -6.716202011483293570e-16 6.303676457067076444e-15 2.150325416334494708e-15 -1.325789470571071092e-15 -2.545429266904762797e-15 0.000000000000000000e+00 0.000000000000000000e+00 0.000000000000000000e+00 0.000000000000000000e+00 -8.312146747461239495e-16 -4.388257743414300093e-15 0.000000000000000000e+00 -2.551335706400909824e-15 3.415322056867737523e-15 2.150325416334494708e-15 -1.325789470571071092e-15 -2.545429266904762797e-15 0.000000000000000000e+00 0.000000000000000000e+00 0.000000000000000000e+00 0.000000000000000000e+00 1.731273755655095873e-15 -1.197495261729449639e-15 0.000000000000000000e+00 1.496691168181925738e-15 2.410812711807266653e-15
1.499999853450559328e+02 -6.515136078429892069e-05 -2.093475300911859256e-04 1.649649115915765782e-02 4.104872312594088496e-03 4.856957321719422571e-02 -2.664837809866160354e-02 -1.040658608245154972e-02 -7.752889777353828837e-02 -7.108642546145829168e-03 -2.588403355063895791e-03 2.052590502898810065e-02 1.843414354695456796e-04 -1.944569377212826671e-03 -5.631921835864024933e-04 7.232794431241738138e-04 -3.129656354216012876e-02 -2.827299893404109851e-02 5.565811827498920450e-03 8.899962986981754549e-04 -6.430775874341696820e-03 6.491325715260615756e-04 -5.007097027629628470e-04 -6.860110653030806940e-04 6.386371231927465142e-03 1.552120218081337079e-02 6.960883258446370903e-02 1.823835749159235294e-03 4.626991695612193284e-03 1.788469622929608413e-02 2.839398851945042646e-03 7.610324070372504607e-03 2.792221537171099208e-02 1.179511654735581998e-03 2.484848183287835489e-05 -5.045751331765651639e-03 1.204238051659915114e-03 -8.850191778783964586e-06 -1.195897834128143294e-01 2.266289023101435499e-02 -1.257302345714348020e-02 -2.788865968700096967e-02 -7.463996063824079354e-03 -9.830935789877455824e-03 -1.539930937957487977e-01 7.630895789137032148e-04 -1.268332956413252468e-03 3.226164994866047298e-03 -4.319758403537550528e-02 -4.712516464621703538e-02 8.021230637481654990e-02 4.819525198687674150e-02 -4.527622171355240137e-03 -1.027567000622173210e-01 0.000000000000000000e+00 0.000000000000000000e+00 0.000000000000000000e+00 2.325608541922598589e-15 1.719090050609331630e-15 0.000000000000000000e+00 4.847125385708258628e-15 -2.074351510981710967e-15 0.000000000000000000e+00 1.820469751596769077e-15 3.090886108264714594e-15 3.348574312146190274e-15 0.000000000000000000e+00 0.000000000000000000e+00 0.000000000000000000e+00 0.000000000000000000e+00 -1.331821407378011691e-15 -2.875280160684385768e-15 0.000000000000000000e+00 4.836628306593336300e-16 -3.789000199935941932e-15 1.820469751596769077e-15 3.090886108264714594e-15 3.348574312146190274e-15 0.000000000000000000e+00 4.210437659065441481e-15 -1.203124333786687675e-15 0.000000000000000000e+00 9.283745320923873946e-16 -5.254724003696253120e-15 0.000000000000000000e+00 2.716063044096798485e-15 -5.776930567211087656e-15 1.820469751596769077e-15 3.090886108264714594e-15 3.348574312146190274e-15 0.000000000000000000e+00 0.000000000000000000e+00 0.000000000000000000e+00 0.000000000000000000e+00 -2.295258562525994554e-15 -6.274587314165751740e-15 0.000000000000000000e+00 -4.220311861860027321e-15 -9.265534210406011461e-15 1.820469751596769077e-15 3.090886108264714594e-15 3.348574312146190274e-15 0.000000000000000000e+00 0.000000000000000000e+00 0.000000000000000000e+00 0.000000000000000000e+00 1.573978305583037332e-16 -9.902819244541301436e-15 0.000000000000000000e+00 4.390284483725482400e-16 -1.079435520484658688e-14 -2.802135136171040458e-02 -2.501089129813425377e-02 -1.564927155290470329e-01 -1.345204385791424519e-02 4.963214391086472749e-03 2.004100385000436718e-02 -5.223446946292532693e-03 3.049766794271605713e-03 -2.055756271757282552e-02 -1.033252180681290266e-01 4.231618222395711580e-03 -8.937176413565350863e-02 0.000000000000000000e+00 0.000000000000000000e+00 0.000000000000000000e+00 4.248754069423891253e-15 -4.164010905676626732e-15 0.000000000000000000e+00 -2.057882486536013324e-15 3.566633087305186828e-15 0.000000000000000000e+00 7.046541831322805334e-15 1.816588752319688514e-15 7.484332565734208628e-16 0.000000000000000000e+00 0.000000000000000000e+00 0.000000000000000000e+00 0.000000000000000000e+00 -9.137638866000360944e-16 7.153797753776042878e-16 0.000000000000000000e+00 -1.967973492812502978e-15 -1.122608849990183734e-15 7.046541831322805334e-15 1.816588752319688514e-15 7.484332565734208628e-16 0.000000000000000000e+00 -6.824108349343787060e-17 5.980778427053181310e-15 0.000000000000000000e+00 2.403255479014204163e-16 -1.058676846859626633e-15 0.000000000000000000e+00 1.471248035575355063e-15 -5.075846578894286464e-15 7.046541831322805334e-15 1.816588752319688514e-15 7.484332565734208628e-16 0.000000000000000000e+00 0.000000000000000000e+00 0.000000000000000000e+00 0.000000000000000000e+00 -2.544737366432842468e-15 2.087117510429757158e-15 0.000000000000000000e+00 -2.552157496871982210e-16 -1.548539676224720334e-15 7.046541831322805334e-15 1.816588752319688514e-15 7.484332565734208628e-16 0.000000000000000000e+00 0.000000000000000000e+00 0.000000000000000000e+00 0.000000000000000000e+00 -9.965857524228342811e-16 1.871758023770511201e-15 0.000000000000000000e+00 -1.385275151806554666e-16 1.323911716184870398e-15
